<?xml version="1.0" standalone="no"?>
<!DOCTYPE svg PUBLIC "-//W3C//DTD SVG 20010904//EN"
 "http://www.w3.org/TR/2001/REC-SVG-20010904/DTD/svg10.dtd">
<svg version="1.0" xmlns="http://www.w3.org/2000/svg"
 width="512.000000pt" height="512.000000pt" viewBox="0 0 512.000000 512.000000"
 preserveAspectRatio="xMidYMid meet">
<metadata>
Created by potrace 1.11, written by Peter Selinger 2001-2013
</metadata>
<g transform="translate(0.000000,512.000000) scale(0.100000,-0.100000)"
fill="#000000" stroke="none">
<path d="M428 4809 c2 -161 0 -215 -10 -227 -7 -9 -8 -13 -2 -9 16 9 17 -212
1 -232 -9 -12 -9 -13 1 -7 17 10 15 -491 -2 -513 -8 -11 -8 -13 1 -8 16 10 15
-212 -1 -232 -8 -11 -8 -13 2 -7 17 10 17 -55 0 -73 -9 -10 -9 -12 -1 -7 16 9
15 -213 -1 -233 -9 -12 -8 -13 2 -7 11 6 13 0 12 -25 -5 -93 -2 -104 36 -122
21 -11 32 -22 28 -29 -4 -6 -3 -8 2 -5 13 8 75 -23 68 -34 -3 -5 2 -6 10 -3 9
3 16 1 16 -5 0 -6 3 -10 8 -10 20 3 23 -3 11 -18 -12 -15 -12 -16 1 -8 20 13
40 15 40 5 0 -4 16 -15 35 -24 20 -10 33 -21 30 -26 -3 -4 4 -6 15 -3 11 3 20
0 20 -6 0 -6 7 -11 16 -11 9 0 12 -5 8 -12 -4 -7 -4 -10 1 -6 8 8 80 -26 90
-42 4 -6 11 -8 16 -5 5 4 9 3 9 -2 0 -4 14 -14 30 -21 17 -8 28 -17 25 -22 -3
-4 3 -7 13 -6 9 0 16 -4 15 -11 -2 -8 4 -10 14 -6 11 4 14 3 9 -5 -5 -8 -2
-10 8 -6 9 3 16 1 16 -6 0 -6 3 -9 8 -7 4 3 32 -10 62 -29 30 -18 66 -39 80
-46 14 -7 27 -15 30 -19 3 -3 19 -12 37 -19 17 -8 29 -18 27 -22 -3 -4 1 -8 8
-8 19 0 68 -23 68 -32 0 -5 6 -8 13 -8 8 0 22 -9 31 -19 17 -18 16 -20 -3 -26
-12 -3 -21 -11 -21 -16 0 -5 -4 -9 -10 -9 -5 0 -7 8 -4 18 4 13 2 12 -7 -3
-16 -26 -31 -35 -43 -28 -5 3 -6 1 -2 -5 4 -7 -3 -14 -19 -18 -14 -3 -25 -9
-25 -13 0 -12 -51 -32 -62 -25 -6 4 -8 2 -4 -4 3 -6 -3 -13 -14 -17 -11 -3
-20 -11 -20 -16 0 -5 -7 -9 -16 -9 -9 0 -12 5 -8 12 4 7 3 8 -5 4 -6 -4 -9
-12 -6 -17 4 -5 -1 -9 -9 -9 -9 0 -16 -4 -16 -10 0 -5 -7 -10 -15 -10 -8 0
-15 -4 -15 -9 0 -5 -15 -14 -32 -22 -18 -7 -35 -15 -38 -18 -14 -16 -52 -31
-62 -25 -6 4 -8 3 -5 -3 6 -10 -23 -29 -31 -21 -2 2 -8 -5 -13 -15 -6 -9 -14
-15 -20 -12 -5 4 -9 1 -9 -5 0 -6 -4 -9 -9 -6 -5 4 -11 3 -13 -1 -1 -5 -23
-21 -47 -36 -24 -16 -40 -23 -36 -15 4 8 1 7 -7 -2 -21 -24 -58 -41 -70 -34
-7 5 -8 3 -4 -5 5 -8 0 -14 -13 -18 -12 -3 -21 -9 -21 -14 0 -5 -3 -8 -8 -7
-11 2 -45 -14 -61 -30 -7 -7 -20 -11 -27 -8 -8 3 -13 1 -11 -5 1 -6 -19 -22
-45 -37 -47 -25 -53 -37 -48 -85 1 -10 -4 -26 -12 -35 -8 -10 -9 -13 -1 -9 16
10 15 -212 -1 -232 -8 -11 -8 -13 1 -7 18 10 18 -55 1 -73 -9 -10 -9 -12 -1
-7 16 9 15 -213 -1 -233 -8 -11 -8 -13 1 -8 17 10 17 -571 0 -592 -7 -8 -7
-12 -1 -8 16 9 17 -212 1 -232 -10 -12 -9 -13 1 -7 11 6 13 -30 10 -197 -2
-135 0 -203 7 -199 6 3 27 16 49 30 21 13 46 22 56 19 13 -3 17 0 13 9 -3 8 1
14 11 14 9 0 16 5 16 11 0 5 5 7 12 3 7 -5 5 -11 -7 -21 -11 -7 -14 -13 -9
-13 18 0 33 22 27 39 -4 9 -3 13 1 9 5 -4 18 2 29 13 14 13 24 16 31 9 13 -13
26 -13 26 1 0 5 -4 7 -10 4 -5 -3 -10 -1 -10 4 0 6 6 11 14 11 7 0 19 7 26 15
11 13 15 13 21 3 7 -10 9 -9 9 3 0 14 19 29 40 33 3 1 19 11 35 22 18 13 41
21 58 19 15 -2 25 1 21 6 -3 5 -11 6 -17 2 -7 -4 -6 0 2 10 7 9 17 14 22 11 5
-3 9 0 9 7 0 8 4 8 16 -1 8 -8 14 -9 13 -4 -4 21 3 30 32 43 27 12 32 11 45
-5 14 -18 14 -18 4 4 -6 12 -8 23 -5 23 3 1 10 2 15 3 6 0 14 6 18 12 4 6 17
16 29 23 20 10 22 9 17 -6 -4 -10 3 -3 15 14 12 19 29 33 40 33 11 0 22 4 25
9 3 5 22 18 42 30 19 12 32 17 29 11 -3 -5 -1 -10 5 -10 6 0 8 -5 4 -12 -4 -6
-3 -8 4 -5 5 4 8 16 5 27 -3 12 0 20 6 20 7 0 9 -5 5 -12 -4 -6 -3 -8 4 -4 5
3 13 0 16 -6 3 -7 3 -1 -1 15 -5 26 -4 27 23 17 28 -10 28 -9 9 6 -20 16 -20
16 2 11 17 -4 20 -1 15 12 -5 14 -4 14 14 1 10 -8 16 -11 12 -6 -9 11 57 64
90 73 14 3 27 1 32 -6 5 -9 9 -8 13 4 4 9 3 13 -3 10 -17 -10 -11 12 7 26 11
10 14 10 9 2 -11 -20 1 -15 29 11 16 15 33 22 42 19 11 -4 14 -2 9 5 -4 7 -1
12 9 12 11 0 15 -5 12 -15 -4 -8 -2 -17 2 -19 5 -3 8 7 7 22 -1 19 4 27 16 27
9 0 20 4 25 9 5 5 2 6 -6 1 -9 -5 -12 -4 -7 3 4 7 13 12 20 12 7 0 22 9 34 20
12 12 22 16 22 10 0 -5 5 -10 11 -10 6 0 9 6 6 13 -6 16 21 35 46 31 9 -1 17
4 17 12 0 9 5 12 10 9 6 -4 7 -11 4 -17 -4 -7 -2 -8 4 -4 6 4 9 13 5 21 -3 9
1 15 11 15 9 0 16 6 16 13 0 8 3 7 10 -3 8 -13 12 -12 27 4 16 18 16 19 1 7
-12 -9 -18 -10 -18 -2 0 6 5 12 10 12 6 1 15 3 20 4 6 1 15 3 21 4 5 0 7 6 3
12 -4 7 -1 10 7 7 8 -3 20 2 27 11 11 12 12 13 6 1 -4 -8 8 0 26 17 19 18 41
33 50 33 9 0 26 9 37 19 12 11 24 17 27 14 3 -4 13 2 22 13 8 10 13 14 10 9
-2 -6 6 -11 20 -11 13 0 24 4 24 9 0 5 -7 7 -15 3 -8 -3 -15 -1 -15 4 0 9 14
14 33 11 4 0 7 4 7 9 0 6 4 10 10 10 5 0 7 -7 4 -15 -4 -8 -1 -15 5 -15 6 0
10 3 10 8 -1 4 -1 15 0 26 1 15 4 16 16 6 13 -11 14 -10 9 4 -4 11 -1 16 10
16 9 0 16 5 16 10 0 6 9 10 21 10 11 0 18 4 15 8 -3 5 10 15 29 22 19 8 35 18
35 23 0 5 8 3 17 -4 9 -8 14 -9 10 -3 -8 14 28 48 42 39 6 -3 14 0 17 9 8 21
34 29 28 8 -2 -9 1 -7 7 4 12 24 107 80 127 76 7 -2 12 1 11 5 -3 20 2 24 16
13 13 -10 18 -11 28 -1 9 10 8 11 -5 6 -10 -4 -18 -3 -18 1 0 9 56 38 73 39 4
0 11 5 15 10 14 20 72 55 66 41 -3 -8 0 -17 7 -22 8 -4 10 -3 5 5 -10 15 52
73 68 64 6 -4 20 -9 31 -10 16 -2 17 -1 5 6 -8 5 -19 7 -25 5 -5 -3 1 4 14 15
18 17 27 19 38 10 11 -10 12 -8 7 6 -6 15 -4 16 14 6 30 -16 39 -14 16 4 -18
13 -18 14 -1 15 11 0 15 4 11 12 -5 7 -3 8 6 3 7 -4 15 -3 19 2 10 15 81 55
81 46 0 -4 5 0 11 10 6 9 14 15 20 12 5 -4 9 -1 9 6 0 9 3 9 14 0 11 -9 14 -8
12 6 -1 12 5 17 18 15 10 -2 15 1 12 7 -4 6 2 8 13 6 15 -3 18 0 14 12 -4 11
-2 14 5 9 7 -4 12 -2 12 3 0 6 5 11 11 11 5 0 7 -4 4 -10 -3 -6 1 -7 10 -4 9
4 14 13 11 21 -3 8 -2 12 3 9 4 -3 16 3 25 13 11 12 25 17 38 13 14 -3 19 -1
14 6 -3 6 -1 14 5 18 8 4 9 3 5 -4 -4 -7 -2 -12 3 -12 6 0 11 8 11 18 0 14 4
12 21 -8 20 -24 20 -24 9 -1 -9 18 -9 26 1 35 9 8 10 8 4 -4 -4 -8 2 -5 14 8
19 19 25 21 39 10 9 -7 13 -8 9 -2 -6 10 20 40 35 39 3 0 17 9 30 20 14 11 31
21 39 23 7 2 17 9 21 15 7 11 12 2 9 -16 -1 -5 3 -6 9 -2 6 3 8 10 5 15 -3 4
11 18 30 30 31 19 38 20 53 8 15 -11 16 -11 4 3 -14 18 0 36 28 36 8 0 22 2
30 4 10 3 14 -3 13 -15 -1 -13 2 -15 10 -7 7 7 6 15 -3 26 -11 13 -10 18 6 30
16 12 22 11 39 -3 18 -16 19 -16 6 0 -13 17 -7 43 8 33 5 -2 18 4 29 13 12 10
39 27 62 37 22 10 40 22 40 27 0 4 5 8 11 8 8 0 8 -5 -1 -15 -9 -10 -9 -15 -1
-15 6 0 11 5 11 10 0 12 48 56 58 53 4 -1 15 5 24 14 18 16 42 9 32 -10 -4 -7
-3 -8 2 -4 5 5 9 16 9 25 0 9 6 17 13 17 7 0 17 6 21 14 7 11 10 10 18 -4 9
-16 11 -16 16 -1 4 10 3 15 -3 11 -6 -3 -10 -2 -10 3 0 17 13 22 27 10 7 -6
16 -8 20 -4 3 3 1 6 -5 6 -7 0 -12 5 -12 10 0 7 8 6 23 -1 20 -11 21 -11 8 5
-12 14 -12 16 3 10 9 -4 16 -3 15 2 -4 21 2 26 16 14 13 -11 14 -10 9 4 -4 11
-1 16 11 16 9 0 24 8 33 18 10 10 14 13 10 7 -4 -6 1 -11 11 -11 10 0 18 7 17
15 -1 8 17 24 39 35 22 12 43 26 47 31 4 6 8 6 8 2 0 -5 7 -1 16 8 13 13 19
14 25 4 4 -7 5 -17 2 -23 -3 -5 -1 -6 5 -3 5 4 8 17 4 30 -5 20 -4 21 11 8 15
-12 17 -12 12 1 -4 9 9 24 35 41 22 14 38 22 35 17 -11 -17 7 -11 22 7 10 12
12 13 8 3 -4 -9 -1 -8 8 3 8 10 25 27 38 39 20 17 21 20 5 14 -11 -4 -22 -3
-25 1 -5 7 -62 39 -118 67 -13 6 -23 15 -23 19 0 5 5 5 12 1 7 -4 8 -3 4 5 -6
9 -11 9 -21 1 -9 -8 -14 -6 -19 5 -3 9 -10 13 -16 10 -6 -4 -7 1 -3 12 6 16 5
17 -12 3 -17 -14 -18 -13 -12 3 4 11 3 16 -3 12 -14 -9 -50 4 -50 17 0 7 4 7
13 0 9 -8 17 -8 27 0 12 8 12 9 -2 4 -10 -3 -20 -1 -23 4 -3 5 -12 7 -19 4 -8
-3 -40 9 -72 27 -72 40 -71 39 -59 47 20 14 12 27 -17 29 -20 0 -26 -2 -17 -7
7 -5 17 -6 21 -4 4 3 8 1 8 -5 0 -13 -17 -23 -22 -12 -1 4 -27 20 -55 35 -29
14 -53 31 -53 37 0 8 4 8 13 0 10 -8 14 -7 14 3 0 8 -8 13 -18 11 -10 -2 -23
3 -30 11 -6 8 -16 14 -21 14 -6 0 0 -9 13 -20 13 -10 18 -19 12 -20 -7 0 -13
4 -13 9 0 5 -17 17 -38 26 -50 24 -83 51 -74 61 4 5 -1 2 -10 -5 -10 -7 -18
-9 -18 -3 0 5 -13 15 -30 22 -16 7 -30 17 -30 22 0 6 8 4 18 -3 14 -11 13 -10
-2 9 -20 23 -32 30 -21 12 3 -5 -3 -10 -14 -10 -12 0 -21 4 -21 8 0 9 -37 29
-54 30 -5 0 -12 4 -15 9 -3 5 -17 14 -31 21 -38 19 -66 36 -82 50 -8 6 -18 9
-22 5 -4 -4 -9 3 -13 15 -3 12 -10 22 -15 22 -5 0 -6 -5 -3 -11 4 -6 -9 0 -28
12 -19 13 -33 28 -30 33 4 5 -1 7 -10 3 -9 -3 -19 -2 -22 3 -4 6 2 10 12 11
11 0 13 3 5 6 -7 3 -20 -1 -29 -9 -12 -9 -15 -9 -9 0 5 8 0 12 -13 12 -12 0
-21 5 -21 11 0 5 -4 8 -8 5 -5 -3 -20 6 -34 19 -14 13 -29 21 -32 18 -3 -4 -6
1 -6 10 0 10 -3 17 -7 18 -5 0 -19 2 -32 3 -13 2 -30 10 -36 20 -7 9 -17 16
-21 15 -13 -4 -64 23 -64 33 0 4 5 8 12 8 6 0 8 3 5 6 -4 4 -13 2 -20 -5 -11
-9 -17 -8 -27 4 -7 8 -19 15 -27 15 -8 0 -11 5 -8 10 3 6 -3 10 -15 10 -11 0
-31 10 -43 23 -13 12 -30 21 -37 20 -22 -4 -63 34 -54 49 6 11 5 11 -8 0 -13
-10 -20 -7 -43 15 -16 16 -25 22 -21 16 4 -7 2 -13 -3 -13 -11 0 -14 11 -12
40 0 10 -1 11 -5 3 -7 -16 -34 -17 -34 -2 0 6 -7 8 -15 5 -9 -3 -18 1 -21 9
-4 8 -12 15 -20 15 -8 0 -14 5 -14 11 0 5 -5 7 -10 4 -7 -4 -9 2 -6 17 3 18
-1 24 -16 24 -17 0 -18 -2 -3 -12 9 -7 13 -14 8 -17 -12 -7 -44 18 -35 28 4 5
0 6 -8 3 -8 -3 -28 3 -45 13 -16 10 -37 22 -45 25 -8 4 -23 14 -32 22 -10 8
-18 12 -18 8 0 -4 -6 -1 -14 6 -8 7 -12 17 -9 22 3 4 -5 5 -18 1 -22 -7 -23
-6 -10 9 13 16 12 17 -11 11 -20 -5 -29 -2 -37 13 -6 11 -7 23 -3 27 4 5 1 5
-6 1 -7 -4 -10 -12 -7 -17 9 -14 0 -11 -23 10 -12 10 -18 22 -14 27 4 4 0 3
-9 -4 -13 -10 -19 -9 -29 3 -7 8 -16 12 -21 9 -5 -3 -9 2 -9 10 0 9 -6 15 -12
14 -7 -2 -12 3 -10 11 3 12 0 12 -11 2 -12 -9 -15 -8 -13 6 0 12 -5 17 -16 15
-20 -3 -98 36 -98 50 0 5 -5 6 -10 3 -6 -3 -11 4 -11 17 -1 17 -3 18 -6 5 -2
-9 -9 -15 -14 -11 -5 3 -6 10 -3 16 4 6 -1 8 -15 3 -12 -4 -21 -2 -21 4 0 6 5
11 11 11 5 0 7 5 4 11 -5 6 -12 4 -22 -8 -8 -10 -12 -12 -8 -5 4 7 0 12 -10
12 -9 0 -27 11 -40 24 -13 13 -26 21 -29 19 -3 -3 -13 0 -22 8 -9 7 -23 14
-32 16 -9 1 -18 7 -20 13 -2 5 -9 7 -14 4 -6 -4 -8 -2 -4 4 3 6 2 13 -4 17 -5
3 -10 0 -10 -7 -1 -8 -9 -4 -19 10 -11 12 -27 22 -36 22 -10 0 -13 5 -9 12 5
8 2 9 -9 5 -19 -7 -50 20 -41 35 4 6 -2 5 -15 -1 -14 -8 -21 -8 -21 -1 0 5 -7
10 -15 10 -8 0 -15 4 -15 9 0 5 -9 13 -20 16 -11 3 -20 14 -20 23 0 15 -2 15
-10 2 -7 -11 -10 -11 -10 -2 0 7 -4 10 -10 7 -5 -3 -10 -1 -10 5 0 6 -4 9 -9
6 -5 -3 -12 1 -15 10 -3 8 -2 12 4 9 6 -4 7 1 3 11 -5 15 -7 15 -15 0 -10 -18
-28 -22 -28 -5 0 5 5 7 12 3 6 -4 8 -3 4 4 -3 6 -16 9 -27 7 -11 -2 -22 2 -26
10 -3 8 -10 12 -15 9 -6 -4 -8 2 -3 17 6 22 6 22 -6 7 -11 -13 -18 -15 -29 -7
-11 8 -12 12 -2 16 17 7 15 20 -3 20 -8 0 -12 -4 -9 -9 3 -4 -2 -8 -11 -8 -9
0 -13 5 -10 10 3 6 -3 10 -15 10 -12 0 -38 11 -58 25 -20 14 -42 25 -49 25 -7
0 -16 6 -20 13 -4 6 -17 17 -28 24 -11 6 -19 17 -17 24 2 10 0 10 -12 0 -9 -7
-16 -8 -20 -2 -4 5 2 15 11 21 16 10 16 11 -2 5 -26 -8 -26 -8 -53 0 -17 6
-21 12 -16 29 6 21 6 21 -11 1 -9 -11 -13 -14 -9 -6 5 11 3 13 -12 8 -18 -7
-18 -6 -2 6 10 8 15 17 12 20 -4 3 -13 0 -21 -8 -12 -13 -21 -10 -66 20 -29
19 -59 41 -67 47 -8 7 -16 12 -17 11 -8 -7 -23 -2 -23 8 0 8 4 8 14 0 10 -9
15 -8 19 3 4 11 1 13 -10 9 -10 -4 -14 -2 -10 4 3 5 0 10 -8 10 -8 0 -12 -4
-9 -8 2 -4 0 -10 -6 -14 -9 -5 -15 15 -11 38 1 5 -3 6 -9 2 -6 -3 -8 -11 -5
-16 3 -5 -1 -6 -9 -3 -9 3 -16 13 -16 21 0 8 5 11 12 7 7 -4 8 -3 4 4 -4 6
-13 9 -21 6 -8 -4 -12 -10 -9 -15 3 -5 -2 -6 -10 -3 -9 3 -16 10 -16 15 0 5
-7 9 -15 9 -8 0 -15 5 -15 11 0 5 -6 7 -12 3 -8 -5 -7 0 2 11 14 17 14 18 -4
8 -15 -8 -26 -7 -45 5 -14 9 -29 21 -33 27 -4 5 -8 6 -8 2 0 -4 -6 -2 -14 5
-7 7 -11 20 -8 28 3 9 -2 7 -12 -5 -17 -20 -17 -20 -13 1 3 13 -1 21 -9 21 -7
0 -11 -4 -8 -9 3 -4 -6 -3 -20 3 -14 7 -23 17 -19 22 4 6 0 8 -10 4 -10 -3
-17 -2 -17 4 0 6 -6 7 -12 3 -9 -5 -9 -3 1 9 7 9 18 14 24 10 6 -4 7 -1 2 6
-5 9 -10 10 -18 2 -16 -16 -47 -13 -54 5 -3 8 -12 13 -20 9 -10 -3 -13 -1 -10
9 4 10 0 12 -14 9 -10 -3 -19 0 -19 6 0 6 -7 11 -16 11 -25 0 -45 25 -31 40 8
9 5 8 -10 -1 -18 -11 -25 -11 -35 -1 -30 30 -33 11 -30 -199z"/>
<path d="M607 4959 c7 -7 15 -10 18 -7 3 3 -2 9 -12 12 -14 6 -15 5 -6 -5z"/>
<path d="M713 4925 c0 -8 4 -12 9 -9 5 3 6 10 3 15 -9 13 -12 11 -12 -6z"/>
<path d="M821 4817 c2 -1 13 -10 25 -20 17 -14 21 -14 21 -2 0 8 -4 12 -8 9
-4 -2 -10 0 -14 6 -3 5 -11 10 -17 10 -6 0 -9 -1 -7 -3z"/>
<path d="M1080 4676 c0 -8 4 -17 9 -20 5 -4 7 3 4 14 -6 23 -13 26 -13 6z"/>
<path d="M1140 4636 c0 -8 4 -17 9 -20 5 -4 7 3 4 14 -6 23 -13 26 -13 6z"/>
<path d="M1170 4611 c0 -6 4 -12 8 -15 5 -3 9 1 9 9 0 8 -4 15 -9 15 -4 0 -8
-4 -8 -9z"/>
<path d="M1267 4559 c7 -7 15 -10 18 -7 3 3 -2 9 -12 12 -14 6 -15 5 -6 -5z"/>
<path d="M1390 4478 c0 -4 4 -8 9 -8 6 0 12 4 15 8 3 5 -1 9 -9 9 -8 0 -15 -4
-15 -9z"/>
<path d="M1474 4439 c1 -7 10 -13 19 -15 9 -1 15 2 11 7 -3 5 -9 7 -14 4 -4
-3 -11 0 -13 5 -3 6 -4 5 -3 -1z"/>
<path d="M1650 4359 c0 -5 5 -7 10 -4 6 3 10 8 10 11 0 2 -4 4 -10 4 -5 0 -10
-5 -10 -11z"/>
<path d="M1715 4321 c-3 -5 -2 -12 3 -15 5 -3 9 1 9 9 0 17 -3 19 -12 6z"/>
<path d="M1786 4258 c3 -4 9 -8 15 -8 5 0 9 4 9 8 0 5 -7 9 -15 9 -8 0 -12 -4
-9 -9z"/>
<path d="M1820 4245 c0 -8 4 -15 10 -15 5 0 7 7 4 15 -4 8 -8 15 -10 15 -2 0
-4 -7 -4 -15z"/>
<path d="M1870 4223 c0 -5 5 -15 10 -23 7 -12 9 -10 7 8 -1 19 -17 33 -17 15z"/>
<path d="M1950 4159 c0 -5 5 -7 10 -4 6 3 10 8 10 11 0 2 -4 4 -10 4 -5 0 -10
-5 -10 -11z"/>
<path d="M2014 4135 c3 -23 12 -26 13 -5 1 11 -2 20 -7 20 -4 0 -7 -7 -6 -15z"/>
<path d="M2055 4120 c-3 -5 -1 -10 4 -10 6 0 11 5 11 10 0 6 -2 10 -4 10 -3 0
-8 -4 -11 -10z"/>
<path d="M2135 4060 c-3 -5 -1 -10 4 -10 6 0 11 5 11 10 0 6 -2 10 -4 10 -3 0
-8 -4 -11 -10z"/>
<path d="M2289 3968 c11 -15 41 -15 41 -1 0 3 -6 3 -14 0 -7 -3 -20 0 -27 6
-11 10 -11 9 0 -5z"/>
<path d="M2426 3902 c-2 -4 4 -8 14 -8 10 0 16 4 14 8 -3 4 -9 8 -14 8 -5 0
-11 -4 -14 -8z"/>
<path d="M2495 3860 c3 -5 8 -10 11 -10 2 0 4 5 4 10 0 6 -5 10 -11 10 -5 0
-7 -4 -4 -10z"/>
<path d="M2651 3771 c-8 -5 -9 -11 -3 -15 5 -3 12 1 16 9 6 17 6 18 -13 6z"/>
<path d="M2710 3720 c0 -5 5 -10 10 -10 6 0 10 5 10 10 0 6 -4 10 -10 10 -5 0
-10 -4 -10 -10z"/>
<path d="M2990 3565 c0 -2 6 -8 13 -14 10 -8 14 -7 14 2 0 8 -6 14 -14 14 -7
0 -13 -1 -13 -2z"/>
<path d="M3055 3540 c-8 -13 12 -40 29 -40 6 0 3 5 -6 11 -10 5 -18 15 -18 20
0 6 5 7 12 3 7 -4 8 -3 4 4 -9 15 -13 15 -21 2z"/>
<path d="M3143 3480 c2 -8 12 -16 23 -17 13 -2 15 -1 4 4 -8 3 -19 11 -23 17
-6 7 -7 6 -4 -4z"/>
<path d="M3214 3449 c-3 -6 2 -18 12 -27 17 -16 17 -16 5 0 -7 9 -10 22 -6 28
3 5 4 10 1 10 -3 0 -8 -5 -12 -11z"/>
<path d="M3295 3380 c3 -5 8 -10 11 -10 2 0 4 5 4 10 0 6 -5 10 -11 10 -5 0
-7 -4 -4 -10z"/>
<path d="M3366 3362 c-3 -5 1 -9 9 -9 8 0 12 4 9 9 -3 4 -7 8 -9 8 -2 0 -6 -4
-9 -8z"/>
<path d="M3446 3298 c3 -4 9 -8 15 -8 5 0 9 4 9 8 0 5 -7 9 -15 9 -8 0 -12 -4
-9 -9z"/>
<path d="M3474 3279 c-5 -8 -3 -9 6 -4 7 4 16 2 22 -6 8 -12 9 -12 6 0 -6 20
-24 25 -34 10z"/>
<path d="M3613 3223 c4 -6 2 -13 -5 -15 -8 -3 -6 -6 4 -10 17 -7 19 15 3 29
-4 4 -5 3 -2 -4z"/>
<path d="M3667 3176 c-4 -10 -1 -13 8 -9 8 3 12 9 9 14 -7 12 -11 11 -17 -5z"/>
<path d="M3716 3153 c-6 -14 -5 -15 5 -6 7 7 10 15 7 18 -3 3 -9 -2 -12 -12z"/>
<path d="M3737 3143 c-9 -8 12 -33 27 -33 6 0 3 5 -7 11 -9 6 -15 14 -12 20 7
10 2 12 -8 2z"/>
<path d="M3820 3126 c0 -2 8 -10 18 -17 15 -13 16 -12 3 4 -13 16 -21 21 -21
13z"/>
<path d="M3790 3110 c-9 -6 -10 -10 -3 -10 6 0 15 5 18 10 8 12 4 12 -15 0z"/>
<path d="M3866 3058 c3 -4 9 -8 15 -8 5 0 9 4 9 8 0 5 -7 9 -15 9 -8 0 -12 -4
-9 -9z"/>
<path d="M4033 2972 c-9 -6 -7 -11 7 -20 12 -7 21 -8 25 -2 4 6 1 9 -7 8 -7
-2 -12 3 -10 10 2 14 1 14 -15 4z"/>
<path d="M4180 2885 c0 -8 4 -15 10 -15 5 0 7 7 4 15 -4 8 -8 15 -10 15 -2 0
-4 -7 -4 -15z"/>
<path d="M4220 2875 c-7 -9 -11 -17 -9 -20 3 -2 10 5 17 15 14 24 10 26 -8 5z"/>
<path d="M4291 2806 c2 -2 15 -9 29 -15 24 -11 24 -11 6 3 -16 13 -49 24 -35
12z"/>
<path d="M4350 2781 c0 -6 4 -13 10 -16 6 -3 7 1 4 9 -7 18 -14 21 -14 7z"/>
<path d="M4376 2778 c3 -5 10 -6 15 -3 13 9 11 12 -6 12 -8 0 -12 -4 -9 -9z"/>
<path d="M4510 2700 c0 -5 5 -10 11 -10 5 0 7 5 4 10 -3 6 -8 10 -11 10 -2 0
-4 -4 -4 -10z"/>
<path d="M4570 2646 c0 -2 7 -7 16 -10 8 -3 12 -2 9 4 -6 10 -25 14 -25 6z"/>
<path d="M4655 2619 c-4 -6 -5 -12 -2 -15 2 -3 7 2 10 11 7 17 1 20 -8 4z"/>
<path d="M1350 2566 c0 -2 7 -7 16 -10 8 -3 12 -2 9 4 -6 10 -25 14 -25 6z"/>
<path d="M4421 2386 c-9 -11 -9 -16 1 -22 7 -4 10 -4 6 1 -4 4 -3 14 3 22 6 7
9 13 6 13 -2 0 -10 -6 -16 -14z"/>
<path d="M4068 2171 c4 -10 7 -11 10 -3 2 7 8 10 12 7 5 -3 11 -2 14 3 2 4 -6
8 -19 8 -16 0 -21 -4 -17 -15z"/>
<path d="M3930 2100 c0 -5 5 -10 11 -10 5 0 7 5 4 10 -3 6 -8 10 -11 10 -2 0
-4 -4 -4 -10z"/>
<path d="M3965 2100 c-3 -6 1 -7 9 -4 18 7 21 14 7 14 -6 0 -13 -4 -16 -10z"/>
<path d="M3905 2080 c3 -5 8 -10 11 -10 2 0 4 5 4 10 0 6 -5 10 -11 10 -5 0
-7 -4 -4 -10z"/>
<path d="M3856 2058 c3 -4 11 -5 19 -1 21 7 19 12 -4 10 -11 0 -18 -5 -15 -9z"/>
<path d="M3815 2040 c-3 -5 -1 -10 4 -10 6 0 11 5 11 10 0 6 -2 10 -4 10 -3 0
-8 -4 -11 -10z"/>
<path d="M3750 1959 c0 -5 5 -7 10 -4 6 3 10 8 10 11 0 2 -4 4 -10 4 -5 0 -10
-5 -10 -11z"/>
<path d="M3586 1902 c-3 -5 1 -9 9 -9 8 0 15 4 15 9 0 4 -4 8 -9 8 -6 0 -12
-4 -15 -8z"/>
<path d="M3545 1880 c-3 -6 1 -7 9 -4 18 7 21 14 7 14 -6 0 -13 -4 -16 -10z"/>
<path d="M3507 1839 c7 -7 15 -10 18 -7 3 3 -2 9 -12 12 -14 6 -15 5 -6 -5z"/>
<path d="M3436 1802 c-3 -5 1 -9 9 -9 8 0 12 4 9 9 -3 4 -7 8 -9 8 -2 0 -6 -4
-9 -8z"/>
<path d="M3330 1760 c0 -5 5 -10 11 -10 5 0 7 5 4 10 -3 6 -8 10 -11 10 -2 0
-4 -4 -4 -10z"/>
<path d="M3131 1634 c0 -11 3 -14 6 -6 3 7 2 16 -1 19 -3 4 -6 -2 -5 -13z"/>
<path d="M3090 1610 c-8 -5 -12 -12 -9 -15 4 -3 12 1 19 10 14 17 11 19 -10 5z"/>
<path d="M2860 1489 c-20 -16 -21 -18 -4 -10 12 6 23 8 26 6 3 -3 5 2 5 10 0
8 -1 15 -1 15 -1 0 -12 -10 -26 -21z"/>
<path d="M2786 1442 c-3 -5 1 -9 9 -9 8 0 12 4 9 9 -3 4 -7 8 -9 8 -2 0 -6 -4
-9 -8z"/>
<path d="M2767 1419 c7 -7 15 -10 18 -7 3 3 -2 9 -12 12 -14 6 -15 5 -6 -5z"/>
<path d="M2708 1383 c6 -3 10 -9 6 -14 -8 -14 2 -11 14 4 8 10 6 13 -11 14
-12 0 -16 -1 -9 -4z"/>
<path d="M2645 1340 c-3 -6 1 -7 9 -4 18 7 21 14 7 14 -6 0 -13 -4 -16 -10z"/>
<path d="M2585 1320 c-3 -6 1 -7 9 -4 18 7 21 14 7 14 -6 0 -13 -4 -16 -10z"/>
<path d="M2560 1310 c0 -5 -5 -9 -11 -7 -6 1 -14 -5 -16 -13 -4 -12 -3 -12 5
-2 5 8 13 13 18 12 5 -1 10 3 12 9 2 6 1 11 -2 11 -3 0 -6 -4 -6 -10z"/>
<path d="M2426 1234 c-5 -14 -4 -15 9 -4 17 14 19 20 6 20 -5 0 -12 -7 -15
-16z"/>
<path d="M2465 1240 c-3 -6 1 -7 9 -4 18 7 21 14 7 14 -6 0 -13 -4 -16 -10z"/>
<path d="M2374 1198 c-4 -7 -4 -10 1 -6 4 4 15 2 24 -5 14 -11 14 -10 2 6 -16
20 -18 21 -27 5z"/>
<path d="M2340 1185 c-7 -9 -8 -15 -2 -15 5 0 12 7 16 15 3 8 4 15 2 15 -2 0
-9 -7 -16 -15z"/>
<path d="M2108 1023 c7 -3 16 -2 19 1 4 3 -2 6 -13 5 -11 0 -14 -3 -6 -6z"/>
<path d="M2020 1005 c-7 -9 -10 -18 -6 -22 3 -3 6 -1 6 6 0 7 5 9 12 5 6 -4 8
-3 4 4 -3 6 2 13 11 15 15 4 15 5 2 6 -9 0 -22 -6 -29 -14z"/>
<path d="M1990 966 c0 -2 7 -7 16 -10 8 -3 12 -2 9 4 -6 10 -25 14 -25 6z"/>
<path d="M1766 861 c-3 -4 6 -8 20 -9 13 -1 24 0 24 2 0 7 -40 14 -44 7z"/>
<path d="M1705 810 c-3 -6 1 -7 9 -4 18 7 21 14 7 14 -6 0 -13 -4 -16 -10z"/>
<path d="M1559 733 c-12 -16 -12 -17 2 -6 9 7 20 9 24 5 5 -4 5 -1 1 6 -9 16
-11 15 -27 -5z"/>
<path d="M1540 700 c-8 -5 -10 -10 -5 -10 6 0 17 5 25 10 8 5 11 10 5 10 -5 0
-17 -5 -25 -10z"/>
<path d="M1414 654 c-19 -15 -19 -15 1 -6 11 5 27 12 35 15 13 5 13 6 -1 6 -8
1 -24 -6 -35 -15z"/>
<path d="M1190 526 c0 -2 7 -7 16 -10 8 -3 12 -2 9 4 -6 10 -25 14 -25 6z"/>
<path d="M1175 499 c-4 -6 -5 -12 -2 -15 2 -3 7 2 10 11 7 17 1 20 -8 4z"/>
<path d="M1136 485 c4 -8 8 -15 10 -15 2 0 4 7 4 15 0 8 -4 15 -10 15 -5 0 -7
-7 -4 -15z"/>
<path d="M1065 451 c-3 -5 -2 -12 3 -15 5 -3 9 1 9 9 0 17 -3 19 -12 6z"/>
<path d="M990 390 c6 -11 13 -20 16 -20 2 0 0 9 -6 20 -6 11 -13 20 -16 20 -2
0 0 -9 6 -20z"/>
<path d="M910 350 c0 -5 5 -10 11 -10 5 0 7 5 4 10 -3 6 -8 10 -11 10 -2 0 -4
-4 -4 -10z"/>
<path d="M836 322 c-3 -5 1 -9 9 -9 8 0 12 4 9 9 -3 4 -7 8 -9 8 -2 0 -6 -4
-9 -8z"/>
<path d="M806 302 c-3 -5 1 -9 9 -9 8 0 12 4 9 9 -3 4 -7 8 -9 8 -2 0 -6 -4
-9 -8z"/>
<path d="M771 274 c0 -11 3 -14 6 -6 3 7 2 16 -1 19 -3 4 -6 -2 -5 -13z"/>
<path d="M730 226 c0 -2 7 -7 16 -10 8 -3 12 -2 9 4 -6 10 -25 14 -25 6z"/>
<path d="M643 208 c-21 -27 -23 -36 -8 -34 8 1 18 6 22 11 4 4 2 5 -4 1 -16
-9 -17 6 -1 22 7 7 9 12 6 12 -3 0 -10 -6 -15 -12z"/>
<path d="M510 131 c0 -6 4 -13 10 -16 6 -3 7 1 4 9 -7 18 -14 21 -14 7z"/>
</g>
</svg>
